<?xml version="1.0" encoding="UTF-8"?>
<!DOCTYPE svg PUBLIC "-//W3C//DTD SVG 1.1//EN" "http://www.w3.org/Graphics/SVG/1.1/DTD/svg11.dtd">
<!-- Creator: CorelDRAW 2020 (64 Bit Versão de avaliação) -->
<svg xmlns="http://www.w3.org/2000/svg" xml:space="preserve" width="3206px" height="1047px" version="1.1" style="shape-rendering:geometricPrecision; text-rendering:geometricPrecision; image-rendering:optimizeQuality; fill-rule:evenodd; clip-rule:evenodd"
viewBox="0 0 1580.24 516.08"
 xmlns:xlink="http://www.w3.org/1999/xlink"
 xmlns:xodm="http://www.corel.com/coreldraw/odm/2003">
 <defs>
  <style type="text/css">
   <![CDATA[
    .fil0 {fill:white}
    .fil1 {fill:white;fill-rule:nonzero}
   ]]>
  </style>
 </defs>
 <g id="Camada_x0020_1">
  <metadata id="CorelCorpID_0Corel-Layer"/>
  <g id="_1796695590112">
   <path class="fil0" d="M741.45 361.11l0 28.8 60.9 0 0 76.94c-20.42,11.67 -44.49,18.96 -66.37,18.96 -54.33,0 -86.41,-40.84 -86.41,-110.48 0,-68.92 32.08,-109.76 86.78,-109.76 23.7,0 48.5,9.12 66.73,24.43l22.61 -18.23c-23.34,-22.61 -56.52,-35.73 -89.71,-35.73 -77.3,0 -122.88,51.78 -122.88,139.65 0,87.52 44.49,139.66 119.6,139.66 35.74,0 74.39,-12.76 103.92,-34.28l0 -119.96 -95.17 0zm225.65 126.53c-40.84,0 -65.63,-23.71 -68.55,-64.55 18.6,8.03 41.57,12.4 64.54,12.4 52.51,0 83.14,-21.88 83.14,-58.7 0,-39.02 -28.81,-61.99 -78.4,-61.99 -65.27,0 -103.92,37.19 -103.92,100.27 0,63.09 36.46,100.28 98.82,100.28 29.9,0 59.07,-9.12 78.76,-24.8l-14.95 -22.6c-16.78,12.39 -37.19,19.69 -59.44,19.69zm-0.73 -146.59c28.81,0 45.58,13.13 45.58,35.74 0,21.87 -20.78,34.64 -56.52,34.64 -18.23,0 -39.01,-2.92 -56.51,-8.39 4.01,-39.38 28.44,-61.99 67.45,-61.99zm222.37 -26.25c-27.35,0 -55.06,9.84 -75.11,26.62 -7.66,-12.04 -22.98,-21.52 -43.76,-27.35l-13.13 24.79c18.96,5.47 30.27,16.05 30.27,28.45l0 144.39 32.08 0 0 -146.58c16.05,-12.04 39.02,-18.96 62.36,-18.96 10.21,0 21.88,1.82 32.45,5.47l5.83 -32.46c-9.11,-2.91 -20.42,-4.37 -30.99,-4.37zm202.31 148.04l0 -86.78c0,-38.29 -32.09,-61.26 -82.77,-61.26 -30.26,0 -60.89,8.02 -83.87,22.61l15.32 21.87c19.32,-10.57 41.2,-16.4 63.08,-16.4 35.37,0 56.15,13.85 56.15,37.55l0 33.91c-16.4,-12.03 -37.19,-19.69 -62.35,-19.69 -48.13,0 -79.49,23.7 -79.49,60.53 0,37.56 32.45,60.17 79.13,60.17 28.44,0 52.5,-9.48 68.91,-25.16 7.66,11.3 22.25,20.42 41.94,25.89l13.49 -24.8c-18.96,-5.47 -29.54,-16.04 -29.54,-28.44zm-86.78 26.25c-32.82,0 -53.24,-14.22 -53.24,-35 0,-21.15 21.52,-35.37 53.6,-35.37 21.52,0 40.11,7.29 54.33,18.6l0 31.72c-12.39,12.76 -32.81,20.05 -54.69,20.05zm244.97 -174.29c-27.34,0 -55.06,9.84 -75.11,26.62 -7.66,-12.04 -22.97,-21.52 -43.76,-27.35l-13.12 24.79c18.96,5.47 30.26,16.05 30.26,28.45l0 144.39 32.09 0 0 -146.58c16.04,-12.04 39.01,-18.96 62.35,-18.96 10.21,0 21.88,1.82 32.45,5.47l5.84 -32.46c-9.12,-2.91 -20.42,-4.37 -31,-4.37l0 0z"/>
   <path class="fil1" d="M900.48 297.34c11.96,0 24.53,-4.6 33.88,-12.57l-3.68 -3.67c-7.97,7.35 -19.31,11.64 -30.5,11.64 -26.52,0 -42,-20.07 -42,-53.95 0,-34.17 15.48,-54.25 41.69,-54.25 10.73,0 21.15,3.98 27.9,10.73l3.68 -3.07c-7.82,-7.66 -19.62,-12.26 -31.73,-12.26 -29.43,0 -46.75,21.92 -46.75,58.85 0,36.79 17.48,58.55 47.51,58.55zm76.79 0c1.38,0 3.22,-0.15 5.21,-0.61l-0.61 -4.14c-1.53,0.31 -3.06,0.46 -4.14,0.46 -10.11,0 -16.09,-4.9 -16.09,-13.03l0 -105.29 -4.6 0 0 106.67c0,9.97 7.51,15.94 20.23,15.94zm15.48 -102.07l34.18 -7.21 -1.07 -4.13 -34.18 7.2 1.07 4.14zm10.43 100.54l4.59 0 0 -79.7 -4.59 0 0 79.7zm79.08 -81.23c-12.26,0 -25.13,4.14 -34.33,11.03 -2.15,-4.29 -7.36,-8.27 -14.56,-11.03l-1.99 3.68c8.27,3.06 13.18,7.81 13.18,12.72l0 64.83 4.6 0 0 -66.36c8.73,-6.6 20.99,-10.58 32.8,-10.58 15.02,0 23.91,7.05 23.91,18.85l0 58.09 4.59 0 0 -58.7c0,-14.1 -10.57,-22.53 -28.2,-22.53zm64.53 -23.3c2.3,0 3.83,-1.38 3.83,-3.68 0,-2.3 -1.53,-3.67 -3.83,-3.67 -2.3,0 -3.83,1.37 -3.83,3.67 0,2.3 1.53,3.68 3.83,3.68zm-2.3 104.53l4.6 0 0 -79.7 -4.6 0 0 79.7zm72.04 1.53c9.96,0 19.92,-3.83 26.97,-10.11l-3.06 -3.37c-6.29,5.82 -15.33,9.19 -24.07,9.19 -20.84,0 -33.26,-13.79 -33.26,-37.24 0,-23.15 12.57,-36.94 33.72,-36.94 7.21,0 15.33,2.76 21.61,7.51l3.07 -2.91c-7.36,-5.52 -16.56,-8.89 -24.68,-8.89 -24.37,0 -38.62,15.33 -38.62,41.23 0,26.05 14.25,41.53 38.32,41.53zm110.66 -16.4l0 -43.83c0,-14.1 -11.96,-22.53 -32.35,-22.53 -11.18,0 -23.29,3.37 -32.33,9.19l2.6 3.22c8.28,-5.05 19.16,-8.12 29.73,-8.12 17.48,0 27.75,7.05 27.75,18.85l0 20.08c-7.82,-5.82 -17.94,-9.5 -29.28,-9.5 -21.45,0 -34.79,10.11 -34.79,24.52 0,15.33 14.25,24.52 34.64,24.52 12.26,0 23.14,-4.29 30.5,-11.49 2.15,4.6 7.2,8.58 14.56,11.49l2.15 -3.68c-8.43,-3.06 -13.18,-7.81 -13.18,-12.72zm-34.34 12.11c-17.93,0 -29.43,-8.12 -29.43,-20.23 0,-12.11 11.5,-20.23 29.43,-20.23 11.65,0 22.23,4.29 29.74,10.73l0 17.47c-6.75,7.66 -17.94,12.26 -29.74,12.26z"/>
   <path class="fil0" d="M568.64 512.29c-108.52,-31.8 -187.78,-132.08 -187.78,-250.88 0,-144.37 117.04,-261.41 261.41,-261.41 34.81,0 68.01,6.82 98.38,19.17 -23.35,-6.85 -48.06,-10.54 -73.63,-10.54 -144.38,0 -261.41,117.04 -261.41,261.41 0,109.57 67.42,203.38 163.03,242.25zm-396.62 0c108.52,-31.8 187.77,-132.08 187.77,-250.88 0,-144.37 -117.04,-261.41 -261.41,-261.41 -34.8,0 -68.01,6.82 -98.38,19.17 23.36,-6.85 48.07,-10.54 73.64,-10.54 144.37,0 261.41,117.04 261.41,261.41 0,109.57 -67.42,203.38 -163.03,242.25l0 0z"/>
   <path class="fil0" d="M645.66 35.37c26.92,0 24.62,31.36 6.7,27.32 -44.88,-10.1 -89.64,-5.12 -128.98,11.58 35.68,-25.32 78.58,-38.9 122.28,-38.9z"/>
   <path class="fil0" d="M667.22 26.94c15.23,0.71 27.11,11.14 26.55,23.29 -0.57,12.15 -13.38,21.42 -28.61,20.71 -15.23,-0.71 -27.11,-11.13 -26.55,-23.28 0.57,-12.15 13.38,-21.43 28.61,-20.72l0 0z"/>
   <path class="fil0" d="M100.91 26.92c16.32,0 29.55,9.86 29.55,22.02 0,12.17 -13.23,22.03 -29.55,22.03 -16.32,0 -29.55,-9.86 -29.55,-22.03 0,-12.16 13.23,-22.02 29.55,-22.02z"/>
  </g>
 </g>
</svg>
