<?xml version="1.0" standalone="no"?>
<!DOCTYPE svg PUBLIC "-//W3C//DTD SVG 20010904//EN"
 "http://www.w3.org/TR/2001/REC-SVG-20010904/DTD/svg10.dtd">
<svg version="1.0" xmlns="http://www.w3.org/2000/svg"
 width="700.000000pt" height="700.000000pt" viewBox="0 0 700.000000 700.000000"
 preserveAspectRatio="xMidYMid meet">
<metadata>
Created by potrace 1.11, written by Peter Selinger 2001-2013
</metadata>
<g transform="translate(0.000000,700.000000) scale(0.100000,-0.100000)"
fill="#000000" stroke="none">
<path d="M690 5910 c-30 -5 -77 -11 -105 -14 -125 -15 -286 -52 -421 -97 -104
-35 -120 -49 -28 -25 61 16 73 18 188 36 159 25 467 34 616 17 235 -26 461
-80 657 -158 106 -41 276 -125 341 -166 29 -18 56 -33 61 -33 4 0 16 -9 26
-20 10 -11 23 -20 28 -20 11 0 210 -149 267 -200 200 -178 391 -410 512 -620
136 -237 254 -555 293 -790 3 -19 10 -60 15 -90 15 -86 23 -213 24 -360 0
-158 -9 -276 -28 -380 -1 -8 -6 -37 -10 -65 -20 -131 -102 -400 -163 -535
-124 -275 -258 -483 -433 -674 -208 -228 -456 -417 -715 -547 -66 -34 -122
-62 -124 -65 -6 -6 49 12 119 38 452 172 841 474 1138 883 13 18 109 169 132
208 97 164 200 425 249 627 51 217 61 302 65 560 5 292 -23 498 -105 762 -57
189 -143 377 -251 553 -26 44 -54 89 -61 100 -6 11 -14 22 -17 25 -3 3 -39 50
-80 105 -88 117 -280 313 -400 410 -294 234 -642 403 -1005 485 -44 10 -98 21
-120 24 -22 4 -67 11 -100 17 -72 13 -488 19 -565 9z"/>
<path d="M5860 5913 c-14 -2 -77 -10 -140 -19 -185 -25 -337 -64 -520 -132
-120 -44 -288 -123 -357 -168 -29 -19 -56 -34 -59 -34 -11 0 -197 -132 -274
-194 -97 -78 -279 -260 -359 -359 -34 -42 -91 -121 -127 -175 -35 -53 -68
-101 -72 -107 -76 -104 -243 -504 -277 -664 -2 -9 -10 -45 -19 -81 -40 -175
-54 -331 -50 -565 2 -115 5 -223 8 -240 3 -16 8 -52 11 -80 19 -147 83 -389
142 -540 42 -107 144 -313 184 -373 16 -24 29 -46 29 -49 0 -3 32 -51 72 -106
266 -373 623 -664 1031 -841 20 -9 52 -23 71 -31 19 -8 38 -15 43 -15 4 0 20
-6 34 -14 14 -7 39 -16 55 -19 16 -4 -25 20 -91 54 -66 34 -127 67 -136 75 -8
8 -19 14 -23 14 -4 0 -47 27 -96 60 -699 470 -1106 1229 -1104 2060 0 126 9
272 19 330 2 14 7 42 10 64 11 80 57 265 91 369 156 481 465 912 869 1213 320
239 672 390 1072 460 137 23 208 28 433 27 202 0 341 -14 490 -48 14 -4 38 -9
54 -11 16 -3 41 -10 55 -15 16 -7 22 -7 16 -1 -16 16 -249 87 -350 107 -16 3
-40 8 -52 10 -33 7 -70 13 -117 20 -23 4 -54 9 -71 11 -37 6 -460 12 -495 7z"/>
<path d="M877 5659 c-137 -31 -224 -138 -196 -242 32 -121 217 -198 370 -153
209 60 243 272 59 366 -63 32 -163 44 -233 29z"/>
<path d="M6223 5659 c-48 -9 -79 -23 -110 -51 -16 -15 -39 -21 -95 -23 -350
-18 -660 -113 -966 -297 -46 -28 -81 -52 -78 -55 2 -2 13 0 23 6 83 44 366
113 528 129 109 10 361 6 460 -8 75 -10 96 -18 123 -41 162 -142 462 -43 446
147 -11 135 -164 223 -331 193z"/>
</g>
</svg>
